# xmcd
#
# Track frame offsets:
#	150
#	13626
#	26264
#	38724
#	50684
#	63469
#	75643
#	85728
#	97892
#	109200
#	119734
#	134212
#	144850
#	155566
#	165704
#	176097
#	186931
#	198235
#	209935
#	219693
#	232931
#	244311
#	256436
#	267781
#	277788
#	289258
#	301984
#	314918
#	325910
#
# Disc length: 4514 seconds
#
# Revision: 0
# Processed by: cddbd v1.4PL0 Copyright (c) Steve Scherf et al.
# Submitted via: EasyCDDAExtractor 4.6.9.1
#
DISCID=b611a01d
DTITLE=Kitty Wells - Queen of Country Music - Disc 1 
DYEAR=1993
DGENRE=Country
TTITLE0=Death At The Bar
TTITLE1=Love Or Hate
TTITLE2=Gathering Flowers For The Master's Bouquet
TTITLE3=Don't Wait For The Last Minute To Pray
TTITLE4=How Far Is Heaven
TTITLE5=My Mother
TTITLE6=Make Up Your Mind
TTITLE7=I'll Be All Smiles (Tonight)
TTITLE8=IT Wasn't God Who Made Honky Tonk Angels
TTITLE9=I Don't Want Your Money, I Want Your Time
TTITLE10=Searching For A Soldier's Grave
TTITLE11=I'm Too Lonely To Smile
TTITLE12=The Things I Might Have Been
TTITLE13=I Heard The Jukebox Playing
TTITLE14=A Wedding Ring Ago
TTITLE15=Divided By Two
TTITLE16=Crying Steel Guitar Waltz
TTITLE17=Paying For That Back Street Affair
TTITLE18=Icicles Hanging From Your Heart
TTITLE19=I Don't Claim To Be An Angel
TTITLE20=Honky Tonk Waltz
TTITLE21=The Life They Live In Songs
TTITLE22=You Said You Could Do Without Me
TTITLE23=Whose Shoulder Will You Cry On
TTITLE24=Hey Joe
TTITLE25=My Cold, Cold Heart Is Melting Now
TTITLE26=I'll Love You Till The Day I Die
TTITLE27=I've Kissed You My Last Time
TTITLE28=I'm A Stranger In My Own Home
EXTD=\nAn AngelRip\n\nOriginal Release Date: June 10, 1993
EXTT0=
EXTT1=
EXTT2=
EXTT3=
EXTT4=
EXTT5=
EXTT6=
EXTT7=
EXTT8=
EXTT9=
EXTT10=
EXTT11=
EXTT12=
EXTT13=
EXTT14=
EXTT15=
EXTT16=
EXTT17=
EXTT18=
EXTT19=
EXTT20=
EXTT21=
EXTT22=
EXTT23=
EXTT24=
EXTT25=
EXTT26=
EXTT27=
EXTT28=
PLAYORDER=
